<svg xmlns="http://www.w3.org/2000/svg" version="1.1" xmlns:xlink="http://www.w3.org/1999/xlink" xmlns:svgjs="http://svgjs.dev/svgjs" width="100%" height="100%" viewBox="0 0 1000 600"><rect width="1000" height="600" x="0" y="0" fill="#2b3252"/><g><circle r="166.66666666666666" cx="290.05394999186194" cy="312.27616333202957" fill="#fad744" transform="matrix(1.0130704271961977,0,0,1.0130704271961977,0,-16.357769875911032)"/><path d="M248.69977800425968 387.2761779846611L248.69977800425968 237.27618252596727L330.3366802945766 237.27618252596727L330.3366802945766 253.13927728380136L266.4973965130491 253.13927728380136L266.4973965130491 302.21665675034626L324.9795375996233 302.21665675034626L324.9795375996233 318.0499896043194L266.4973965130491 318.0499896043194L266.4973965130491 371.413083226827L331.4081088335673 371.413083226827L331.4081088335673 387.2761779846611L248.69977800425968 387.2761779846611Z " fill="#2b3252" transform="matrix(1.0130704271961977,0,0,1.0130704271961977,0,-16.357769875911032)"/><path d="M540.0539421165546 384.8011262472793L540.0539421165546 239.75123839367237L618.9967679860871 239.75123839367237L618.9967679860871 255.09083962898436L557.2642264293437 255.09083962898436L557.2642264293437 302.5486303175951L613.8164148484583 302.5486303175951L613.8164148484583 317.8594518132536L557.2642264293437 317.8594518132536L557.2642264293437 369.4615250119673L620.0328386136129 369.4615250119673L620.0328386136129 384.8011262472793L540.0539421165546 384.8011262472793ZM700.0117351106712 322.23397224058454L700.0117351106712 312.4776404980503L748.707054604382 312.4776404980503L748.707054604382 376.3111030494987Q745.3973845442304 378.78616065969914 740.7350667203644 380.85830191475065Q736.0727488964985 382.9304431698023 730.8060565399093 384.39820989213035Q725.5105844436664 385.83719687480504 719.8121959922747 386.55669036614245Q714.1138075408829 387.27618385747974 708.7319962256797 387.27618385747974L708.7319962256797 387.27618385747974Q694.8313819730424 387.27618385747974 683.2331468926845 382.8441039508417Q671.6349118123267 378.3832443045503 663.1448886145462 369.1449478757788Q654.6548654167656 359.93543118666094 649.8774286342856 345.74701953748865Q645.0999918518057 331.5586078883165 645.0999918518057 312.27618232047587L645.0999918518057 312.27618232047587Q645.0999918518057 292.1879240423374 650.9134992618114 277.88439343455116Q656.7270066718171 263.5808628267649 666.0516423195489 254.57280431522148Q675.3762779672808 245.56474580367802 686.9745130476387 241.42046329357498Q698.5727481279965 237.27618078347191 710.1709832083544 237.27618078347191L710.1709832083544 237.27618078347191Q722.6038307386635 237.27618078347191 730.6909375812952 238.60004880753263Q738.7780444239269 239.95269657124683 744.3613139167046 242.2262960038728L744.3613139167046 242.2262960038728L740.015573229027 257.36443906161037Q730.0577833089184 252.58700227913045 711.6387499306826 252.58700227913045L711.6387499306826 252.58700227913045Q702.9184888156741 252.58700227913045 694.3133466592795 255.60887494274724Q685.7369842425385 258.60196786671054 678.887406205007 265.65300408181645Q672.0378281674756 272.70404029692236 667.692087479798 284.1008171997057Q663.3463467921206 295.4975941024892 663.3463467921206 312.27618232047587L663.3463467921206 312.27618232047587Q663.3463467921206 327.61578355578786 666.8574750298468 338.8111022809968Q670.3973830072265 349.97764126655227 676.7001459913415 357.34525461784654Q683.0316887151101 364.7128679691409 691.953408007693 368.3391151654811Q700.8463475606226 371.96536236182124 711.4085120134546 371.96536236182124L711.4085120134546 371.96536236182124Q724.675971993715 371.96536236182124 734.000607641447 366.78500922419244L734.000607641447 366.78500922419244L734.000607641447 326.3782547506876L700.0117351106712 322.23397224058454ZM863.7108942597418 369.4615250119673L863.7108942597418 384.8011262472793L777.9472700923315 384.8011262472793L777.9472700923315 239.75123839367237L795.1287746654671 239.75123839367237L795.1287746654671 369.4615250119673L863.7108942597418 369.4615250119673Z " fill="#fad744" transform="matrix(1.0130704271961977,0,0,1.0130704271961977,0,-16.357769875911032)"/></g></svg>